<svg version="1.1" id="ripped1" xmlns="http://www.w3.org/2000/svg" xmlns:xlink="http://www.w3.org/1999/xlink" x="0px" y="0px"
viewBox="0 0 1892.2 13" fill="#F6C25F" xml:space="preserve">
<path class="st0" d="M1894.1,13c-0.6,0-1.2,0-1.8,0c-0.3-0.3,0-0.6-0.2-0.9c-1.9,0-3.9,0-5.8,0c-0.2,0.2,0,0.6-0.2,0.9
    c-2.3,0-4.7,0-7,0c-0.2-0.3,0-0.5-0.1-0.9c-0.4,0-0.9,0-1.4,0c-0.5,0-0.9,0-1.5,0c0-0.3,0-0.6,0-0.9c-6.3,0-12.6,0-19,0
    c0-0.4,0-0.6-0.1-0.9c-2.3,0-4.5,0-6.9,0c-0.2,0.2,0,0.6-0.1,0.9c-1.3,0-2.6,0-3.9,0c-0.2-0.2,0-0.6-0.2-0.9c-0.2,0-0.5,0-0.8,0
    c-1.6,0-3.3,0.1-4.9-0.2c-0.8-0.1-1.6-0.1-2.4,0.2c-0.8,0.2-1.7,0-2.5,0c0,0.3,0,0.6,0,0.9c-2.7,0-5.4,0-8.2,0c0,0.4,0,0.6-0.1,0.9
    c-1.9,0-3.9,0-5.9,0c-0.2-0.2,0-0.6-0.1-0.9c-1.3,0-2.6,0-3.9,0c-0.2,0.2,0,0.6-0.2,0.9c-0.9,0-1.8,0-2.7,0c-0.3,0.3,0,0.7-0.2,1
    c-5.6,0-11.2,0-16.8,0c-0.2,0.3,0,0.6-0.2,0.9c-0.5-0.1-0.9,0.3-1.5,0.3c-0.6-0.1-1.1,0.1-1.7-0.2c-0.5-0.2-1.1,0-1.7,0
    c-0.3-0.3,0-0.6-0.2-0.9c-0.3-0.2-0.5,0-0.8-0.1c-0.3,0.3,0,0.6-0.2,0.9c-1.6,0-3.2,0-4.9,0c-0.2-0.3,0-0.6-0.2-0.9
    c-3.6,0-7.2,0-10.8,0c-0.2-0.3-0.1-0.6-0.1-0.9c-0.3-0.3-0.6,0-0.9-0.2c0,0.4,0,0.6,0,1c-0.6,0-1.2,0-1.9,0c0,0.4,0,0.6,0,0.9
    c-0.1,0-0.1,0.1-0.2,0.1c-0.5,0-1,0-1.6,0c-0.6,0-1.1,0-1.7,0c-0.5-0.1-0.9,0.5-1.4,0.2c-0.3,0.2-0.1,0.5-0.3,0.8
    c-0.5-0.2-1,0.4-1.5,0.2c-0.5-0.2-1-0.2-1.5-0.2c0-0.2,0-0.4-0.1-0.7c-0.5,0-0.9,0-1.4,0c-0.5,0-0.8-0.4-1.3-0.2
    c-0.3-0.3,0-0.6-0.2-1c-2.2,0-4.5,0-6.7,0c-0.3-0.3,0-0.7-0.2-1c-1.3,0-2.6,0-3.9,0c0,0-0.1,0.1-0.1,0.1c0,0.2,0,0.5,0,0.8
    c-0.5,0.1-1,0-1.5,0.1c-0.5,0-1,0-1.5,0c-0.2,0.3-0.1,0.6-0.1,0.9c-2.9,0-5.9,0-8.8,0c0-0.3,0-0.5,0-0.9c-1.6,0-3.3,0-4.9,0
    c-0.2,0.2,0,0.6-0.1,0.8c-0.9,0.2-1.8,0.4-2.7,0.3c-0.2,0.2-0.1,0.4-0.2,0.7c-0.7,0-1.3,0.5-2,0.3c-0.2,0.2-0.1,0.4-0.1,0.6
    c-0.8,0.2-1.7,0.6-2.5,0.3c-0.8-0.2-1.6-0.2-2.4-0.2c-0.2-0.2,0-0.5-0.2-0.7c-0.9,0-1.8,0-2.7,0c-0.2,0.1,0,0.4-0.1,0.6
    c-0.3,0.2-0.8-0.1-1.1,0.3c-0.1,0.1-0.3,0.1-0.5,0c-0.7-0.4-1.5-0.1-2.2-0.3c0-0.2,0-0.4-0.1-0.7c-0.7,0.2-1.3-0.3-2-0.2
    c-0.2-0.2,0-0.5-0.2-0.7c-0.3,0-0.5,0-0.9,0c0-0.4,0-0.7,0-1.2c-1,0-1.9,0-2.8,0c-0.2-0.3,0-0.6-0.2-0.9c-0.9-0.2-13.1-0.2-16-0.1
    c0,0.3,0,0.5,0,0.8c-0.3,0.3-0.7,0-1,0.2c0,0.2,0,0.5,0,0.8c-0.1,0-0.1,0.1-0.2,0.1c-2.3,0-4.6,0-6.8,0c-1.2,0-2.5,0-3.7,0
    c-1.3,0-2.6,0-3.8,0c-1.2,0-2.4,0.3-3.6,0.3c-1.2-0.1-2.5,0-3.7,0c-0.2,0.2,0,0.5-0.2,0.7c-2,0-3.9,0-5.9,0c-0.2-0.2,0-0.5-0.2-0.7
    c-2.9,0-5.8,0-8.7,0c-0.2,0.2-0.1,0.4-0.1,0.6c-1.5,0.5-3,0.5-4.5,0.3c-1.9-0.3-3.7,0-5.5-0.2c-0.6-0.1-1.1,0.3-1.7,0.3
    c-0.6-0.1-1.1,0-1.7,0c-0.6,0-1.3,0-1.9,0c-0.6,0-1.2-0.4-1.8-0.2c-0.2-0.2-0.1-0.4-0.1-0.6c-0.1,0-0.1-0.1-0.2-0.1
    c-0.2,0-0.3,0-0.5,0c-0.6,0-1.1,0-1.7,0c-0.5,0-0.9-0.6-1.5-0.1c0-0.5,0-0.7-0.1-1.1c-3.7,0-7.3,0-11,0c0-0.4,0-0.6,0-0.9
    c-7,0-14,0-20.9,0c-0.3-0.3,0-0.7-0.2-1c-6.2,0-12.4,0-18.6,0c-0.2,0.2,0.1,0.6-0.2,0.9c-1,0-1.9,0-2.9,0c-0.1,0.1-0.1,0.1-0.1,0.1
    c0,0.2,0,0.5,0,0.7c0,0-0.1,0.1-0.1,0.1c0,0-0.1,0-0.1,0c-2.6,0-5.1,0-7.6,0c-0.2,0.3-0.1,0.6-0.1,0.9c-0.4,0.1-0.7,0-1.2,0
    c0-0.3,0-0.6,0-0.8c-0.2-0.2-0.4,0-0.6-0.2c0.1-0.6-0.4-1.1-0.3-1.8c-1.6,0-3.1,0-4.7,0c-0.2,0.2,0,0.6-0.2,0.9c-0.3,0-0.7,0-1,0
    c-0.2,0.3-0.1,0.6-0.1,0.9c-1.6,0.1-3.1,0-4.8,0.1c0-0.3,0-0.6,0-0.8c-0.3-0.3-0.7,0-1-0.3c0.2-0.6-0.4-1.1-0.2-1.7
    c-0.3-0.2-0.6-0.1-0.8-0.1c-0.3,0.3,0,0.6-0.2,0.9c-0.6,0-1.2,0-1.7,0c-0.3,0.3,0,0.7-0.2,1c-0.6,0-1.2,0-1.7,0
    c-0.2-0.3,0-0.5-0.1-0.8c-0.3-0.3-0.6,0-0.9-0.2c0-0.3,0-0.5,0-0.6c-0.3-0.8-0.8-0.5-1.2-0.6c0-0.5,0-1,0-1.5
    c-0.3-0.2-0.6-0.1-0.9-0.1c-0.3,0.3,0,0.6-0.2,0.9c-0.2,0-0.5,0-0.8,0c-0.2,0.3,0,0.6-0.2,0.9c-0.6,0-1.1,0-1.7,0
    c-0.2,0.3,0,0.6-0.1,0.8c0.2,0.3,0.5,0.1,0.7,0.2c0.1,0.3,0.1,0.5,0.1,0.9c-0.6,0-1.2,0-1.9,0c0-0.3,0-0.5,0-0.8
    c-0.3-0.2-0.6,0-0.9-0.2c-0.2,0.7,0,1.3-0.1,1.9c-0.6,0-1.2,0-1.8,0c-0.2-0.2,0.1-0.6-0.2-0.9c-1.6,0-3.2,0-4.9,0
    c-0.2,0.3,0,0.6-0.2,0.9c-1.6,0-3.2,0-4.9,0c-0.2-0.3,0-0.5-0.1-0.9c-0.6,0-1.2,0-1.9,0c0-0.4,0-0.6,0-1c-0.6,0-1.2,0-1.9,0
    c0-0.4,0-0.6,0-0.9c-0.1,0-0.1-0.1-0.2-0.1c-0.7-0.1-1.5,0.2-2.2-0.2c-0.1-0.1-0.3,0-0.4,0c-0.7,0.4-1.4,0.2-2.2,0.2
    c-0.2,0.3,0,0.5-0.2,0.9c-0.4,0.1-0.9,0-1.4,0c-0.5,0-1,0-1.5,0c-0.2-0.3-0.1-0.6-0.1-0.9c-1.3,0.1-2.5-0.4-3.8-0.2
    c0-0.3-0.1-0.5-0.1-0.7c-0.1-0.2-0.3-0.1-0.4-0.1c-0.1,0-0.2,0-0.4,0c-0.2,0.2,0,0.5-0.2,0.7c-1-0.1-2,0.1-3,0.2
    c-1,0.1-1.9-0.4-2.8-0.2c-0.2-0.2-0.1-0.4-0.1-0.7c-4,0-7.9,0-11.9,0c0,0.2,0,0.4-0.1,0.7c-0.7-0.2-1.3,0.3-2,0.2
    c-0.3,0.3,0,0.6-0.2,0.9c-1.2,0-2.4,0-3.7,0c-0.2-0.2,0-0.6-0.2-0.9c-1.8,0.2-3.7-0.4-5.6-0.2c-0.1,0-0.1,0-0.2,0
    c-0.2-0.2,0-0.4-0.1-0.6c-0.7,0-1.4,0-2.1,0c0,0.2,0,0.4-0.1,0.7c-0.7-0.1-1.3,0.4-2,0.2c-0.3,0.3,0,0.6-0.2,0.9
    c-0.6,0-1.2,0-1.8,0c-0.2-0.2,0-0.6-0.1-0.8c-3.2-0.5-6.4-0.3-9.6-0.3c-0.4,0-0.9,0-1.3,0c-0.2-0.2-0.1-0.4-0.2-0.7
    c-0.6,0-1.2,0-1.9,0c0-0.4,0-0.8,0-1.1c-0.3-0.2-0.6-0.1-0.8-0.1c-0.3-0.2,0-0.6-0.2-0.9c-1.3,0-2.6,0-4,0c-0.2,0.2,0,0.6-0.1,0.9
    c-0.6,0-1.2,0-1.8,0c0-0.6,0-1.2,0-1.9c-0.8,0-1.4,0-2.1,0c-0.2-0.3-0.1-0.6-0.1-0.9c-0.6,0-1.2,0-1.9,0c0-0.4,0-0.6,0-0.9
    c-1.7-0.5-3.3-0.5-5,0c-0.2,0.2,0.1,0.5-0.1,0.9c-0.2,0-0.5,0-0.8,0c-0.2,0.3,0,0.6-0.2,0.9c-4.2,0-8.5,0-12.8,0
    c-0.2,0.3-0.1,0.6-0.1,0.9c-0.3,0.3-0.6,0-0.9,0.2c0,0.2,0,0.5,0,0.8c-1.5,0.5-3,0.5-4.5,0.3c-1.2-0.1-2.3-0.1-3.5-0.2
    c-0.5-0.1-0.9,0.3-1.5,0.3c-0.5,0-1,0-1.4,0c-0.2,0.3-0.1,0.6-0.1,0.8c-0.2,0.3-0.6,0-0.9,0.2c-0.2,0.2,0,0.4-0.1,0.6
    c-1.8,0.6-3.7,0.2-5.6,0.3c-1-0.5-2.1-0.1-3.2-0.3c-0.2-0.1,0-0.4-0.2-0.7c-1.3-0.1-2.6,0.1-4-0.4c0,0,0.1-0.3,0.1-0.4
    c0,0,0-0.1-0.1-0.1c-1.6,0-3.3,0-4.9,0c-0.2,0.2,0,0.4-0.1,0.6c-0.1,0-0.1,0.1-0.2,0.1c-4.4-0.2-8.7,0.4-13.1,0.3
    c-1.5,0-3.1,0-4.7,0c0,0.3-0.1,0.4-0.1,0.7c-2.9,0-5.8,0-8.8,0c-0.2-0.1,0-0.4-0.1-0.7c-0.3,0-0.5,0-0.7,0
    c-0.2-0.2-0.3-0.3-0.4-0.4c0-0.2,0-0.5,0-0.7c-0.1-0.1-0.2-0.1-0.3-0.1c-4.3,0-8.6,0-12.8,0c-0.9,0-1.7,0.3-2.6,0.2
    c-0.2,0.3,0,0.7-0.5,0.9c-0.5,0-1,0-1.6,0c-0.3,0.2-0.1,0.5-0.3,0.8c-1.2,0-2.4,0-3.6,0c-2.5-0.1-4.9,0.4-7.3,0.3
    c-0.6,0-1.1-0.3-1.7-0.3c-0.6,0.1-1.3-0.1-1.8,0c-1,0.4-2,0.1-3,0.2c-1.3-0.5-2.7-0.1-4-0.3c-0.7,0.2-0.4,0.8-0.5,1.2
    c-0.2,0-0.4,0-0.7,0.1c0,0.6,0,1.2,0,1.9c-0.8,0-1.4,0-2.1,0c-0.2-0.3,0-0.6-0.2-0.9c0,0,0,0,0,0c0,0-0.1,0-0.1,0
    c-2.6,0-5.1,0-7.7,0c0,0.3,0,0.6,0,0.9c-1.1,0-2.1,0-3.1,0c0-0.3,0-0.5,0-0.9c-2,0-3.9,0-5.8,0c-0.3-0.3-0.1-0.7-0.2-1
    c-0.9,0-1.8,0-2.7,0c-0.3-0.3,0-0.7-0.2-1c-0.6,0-1.3,0-2,0c-0.2,0.3,0,0.6-0.2,0.9c-0.6,0-1.1,0-1.7,0c-0.2,0.3-0.1,0.6-0.1,0.9
    c-1.6,0-3.3,0-5,0c0,0.4,0,0.6,0,1c-0.9,0-1.9,0-2.8,0c0,0.4,0,0.6,0,0.9c-0.1,0-0.1,0.1-0.2,0.1c-0.7,0-1.5-0.1-2.2,0
    c-1.9,0.4-3.9,0.1-5.8,0.2c-0.8,0-1.6-0.3-2.4-0.3c-0.8,0.1-1.7,0-2.5,0c-0.2-0.3-0.1-0.6-0.1-0.8c-0.9-0.2-7.2-0.2-10.7-0.1
    c-0.1,0.3,0,0.5-0.1,0.9c-4,0-7.9,0-12,0c0-0.3,0-0.5,0-0.9c-4,0-8,0-12,0c0,0.3,0,0.6,0,0.9c-0.4,0-0.7,0-1.1,0
    c-0.2-0.2,0-0.6-0.1-0.9c-1.2,0-2.4,0-3.6,0c-0.3-0.3,0-0.7-0.2-1c-0.6,0-1.3,0-1.9,0c-0.2-0.3-0.1-0.6-0.1-0.9
    c-0.5-0.1-1.1,0-1.6-0.1c-0.2,0.3-0.1,0.6-0.1,0.9c-0.3,0.2-0.8,0-1.2,0.2c0,0.2,0,0.5,0,0.8c-1.9,0-3.9,0-5.9,0
    c-0.2-0.2,0-0.6-0.1-0.9c-0.6,0-1.1,0-1.7,0c-0.3-0.3,0-0.7-0.2-1c-0.3,0-0.7,0-1,0c-0.3-0.3,0-0.7-0.2-0.9c-0.2-0.1-0.4,0-0.6,0
    c-0.2,0.3,0,0.5-0.2,0.9c-0.3,0.2-0.7,0-1.1,0.1c0,0.3,0,0.5,0,0.7c-0.3,0.3-0.7,0-1,0.2c0,0.2,0,0.5,0,0.8c-1.6,0-3.3,0-4.9,0
    c-0.2-0.2,0-0.6-0.1-0.9c-1.3,0-2.6,0-3.9,0c-0.2,0.2,0,0.6-0.1,0.9c-0.6,0-1.2,0-1.7,0c-0.3,0.3,0,0.6-0.2,0.9
    c-0.4,0-0.8,0.2-1.3,0.3c-0.5,0.1-0.9,0-1.5,0c0-0.7,0-1.4,0-2.1c-0.3-0.2-0.6-0.1-1-0.1c0,0.3,0,0.5,0,0.9c-1,0-2,0-3,0
    c-0.2-0.2,0-0.6-0.1-0.9c-1.5,0-3.1,0-4.6,0c-0.3-0.3,0-0.7-0.2-1c-2.7,0-5.3,0-8,0c-0.2,0.2,0,0.6-0.2,0.9c-3,0-6,0-8.9,0
    c-0.2-0.3,0-0.5-0.1-0.8c-1-0.2-15.1-0.2-18-0.1c0,0.3,0,0.5,0,0.9c-1.9,0-3.8,0-5.8,0c0,0.4,0,0.6,0,0.9c-2.4,0-4.7,0-7.1,0
    c-0.2-0.2,0-0.6-0.1-0.9c-0.6,0-1.2,0-1.8,0c-0.2,0.2,0.1,0.6-0.2,0.9c-2.6,0-5.3,0-8,0c-0.2-0.3,0-0.6-0.2-0.9c-2.2,0-4.5,0-6.8,0
    c-0.2-0.3-0.1-0.6-0.1-0.9c-6.6,0-13.2,0-19.9,0c0-0.4,0-0.6,0-1c-1,0.2-2-0.3-3.1-0.3c0-0.3,0-0.5-0.1-0.7
    c-1.3,0.2-2.4-0.4-3.7-0.2c-0.2-0.2-0.1-0.4-0.2-0.6c0,0,0-0.1-0.1-0.1c-1,0-2,0-3,0c-0.2,0.2,0,0.4-0.1,0.6
    c-0.9,0.3-1.9,0.4-2.8,0.3c0,0.3-0.1,0.5-0.1,0.7c-0.6-0.2-1.1,0.4-1.5,0.3c-0.8-0.3-0.5-0.8-0.6-1.2c-0.2,0-0.4,0-0.6-0.1
    c0-0.6,0-1.2,0-1.9c-5.8,0-11.5,0-17.3,0c0-0.4,0-0.6-0.1-0.9c-0.2-0.2-0.4-0.1-0.6-0.1c-0.3,0.2,0,0.6-0.2,0.9c-0.3,0-0.7,0-1,0
    c-0.3,0.3,0,0.7-0.2,0.9c-0.8,0.1-1.6,0.5-2.4,0.3c-0.8-0.2-1.5-0.2-2.3-0.2c0-0.3,0-0.6,0-0.9c-1.4,0-2.7,0-4.1,0
    c0,0.4,0,0.7,0,1.1c-0.7,0-1.3,0-1.9,0c0,0.3-0.1,0.5-0.1,0.6c-1,0.3-2,0.4-2.9,0.3c-0.3,0.2,0,0.5-0.2,0.7c-1.2,0-2.4,0-3.7,0
    c-0.2-0.2,0-0.4-0.1-0.6c-0.3-0.2-0.8,0-1.2-0.2c0-0.3,0-0.5,0-0.7c-0.1-0.1-0.1-0.1-0.1-0.1c0,0-0.1,0-0.1,0
    c-1.6,0.2-3.1-0.2-4.7-0.3c-0.7,0-1.3,0.3-1.9,0.3c-0.6,0-1.3,0-1.9,0c-0.2,0.2,0,0.5-0.2,0.7c-0.6-0.2-1.2,0.3-1.9,0.2
    c-0.7,0-1.4,0-2,0c-0.2,0.2-0.1,0.4-0.1,0.6c-1,0.3-2,0.4-3.1,0.3c0,0.3,0,0.6,0,0.9c-1.2,0-2.5,0-3.6,0c-0.3,0.3-0.1,0.7-0.2,1
    c-1,0-2,0-2.9,0c-0.3,0.3,0,0.7-0.2,1c-2.9,0-5.8,0-8.7,0c-0.2-0.3,0-0.6-0.2-0.9c-1,0-1.9,0-2.9,0c-0.2-0.2-0.1-0.3-0.1-0.5
    c0-0.1,0-0.2,0-0.4c-3.3,0-6.7,0-10.1,0c0,0.3,0,0.5,0,0.9c-0.9,0-1.9,0-2.8,0c0,0.4,0,0.6,0,0.9c-0.3,0.2-0.6,0-0.8,0.1
    c-0.3-0.3,0-0.6-0.2-1c-0.2,0-0.5,0-0.7,0c-0.3-0.3,0-0.7-0.2-1c-1,0-2,0-2.9,0c0,0-0.1,0.1-0.1,0.1c0,0.2,0,0.5,0,0.7
    c-1,0.2-8.1,0.3-11.7,0.1c-0.1-0.3,0-0.5-0.1-0.9c-0.7,0-1.4,0-2.1,0c0-0.4,0-0.6,0-0.9c-0.2-0.2-9.1-0.2-11,0c0,0.3,0,0.5,0,0.8
    c-0.3,0.2-0.6,0.1-0.8,0.1c-0.3,0.3,0,0.6-0.2,0.9c-0.6,0-1.2,0-1.8,0c-0.2-0.2,0-0.6-0.2-0.9c-0.2,0-0.5,0-0.8,0
    c-0.2-0.1-0.1-0.2-0.1-0.3c0-0.3,0.1-0.6-0.2-0.7c-0.3-0.3-0.7,0-1-0.3c0-0.2,0-0.4-0.1-0.6c-0.6,0-1.2,0-1.9,0
    c0,0.2,0,0.4-0.1,0.6c-1,0.3-2,0.4-3,0.3c-0.3,0.3,0,0.7-0.2,1c-0.2,0-0.5,0-0.8,0c-0.2,0.3-0.1,0.5-0.1,0.8
    c-0.2,0.3-0.6,0-0.9,0.2c0,0.2,0,0.5,0,0.7c-0.3,0.3-0.7,0-1,0.2c0,0.2,0,0.5,0,0.8c-0.3,0.1-0.6,0.1-0.9,0c0-0.3,0-0.6,0-0.9
    c-0.6,0-1.2,0-1.8,0c-0.3-0.3,0-0.7-0.2-1c-1.7,0-3.4,0-5.1,0c-0.2,0.2,0,0.6-0.2,0.9c-0.5,0-1,0-1.5,0c-0.2-0.3,0-0.5-0.2-0.9
    c0,0,0,0,0,0c0,0-0.1,0-0.1,0c-1.7,0-3.3,0-5.1,0c0-0.3,0-0.6,0-0.9c-1.9,0-3.8,0-5.8,0c0.2-0.7-0.3-1.2-0.2-1.9
    c-0.7-0.2-1.5,0.1-2.2-0.3c-0.1-0.1-0.3,0-0.4,0c-1,0.5-2.1,0.1-3.2,0.3c-0.1,0.3,0,0.7-0.3,0.9c-1.3,0.3-2.5-0.5-3.8-0.1
    c0-0.3-0.1-0.5-0.1-0.7c-0.7,0-1.3,0-2.1,0c0.2,0.9,0.3,1.8,0.2,2.8c-2.3,0-4.6,0-6.8,0c-0.2-0.3,0-0.6-0.1-0.8
    c-0.3-0.2-0.8,0-1.2-0.2c0-0.2,0-0.5,0-0.8c-0.1,0-0.1-0.1-0.2-0.1c-0.9,0-1.8,0-2.6,0c-0.4,0-0.8,0.1-1.1-0.2
    c-0.1-0.1-0.6-0.1-0.7,0c-0.4,0.4-0.8,0.1-1.3,0.3c-0.2,0.2,0,0.6-0.2,0.9c-0.6,0-1.2,0-1.8,0c-0.2-0.4,0-0.8-0.1-1.2
    c-0.6,0-1.2,0-1.8,0c-0.2-0.2-0.1-0.4-0.1-0.6c-0.4-0.2-0.7,0-1.2-0.1c0,0.3,0,0.5-0.1,0.7c-0.2,0.2-0.5,0.1-0.7,0.1
    c-0.7,0-1.4-0.2-2,0.1c-0.7,0.3-1.3,0.1-2,0.2c-0.7,0.1-1.4,0-2,0c-1.4,0.1-2.8-0.4-4.2-0.2c-0.3-0.2,0-0.5-0.2-0.7
    c-1.1,0.2-2.2-0.3-3.3-0.3c-1.1,0-2.1,0.5-3.3,0.2c0,0.3,0,0.5-0.1,0.7c-0.7,0-1.4,0-2.1,0c0-0.2,0-0.4-0.1-0.6
    c-0.3-0.2-0.8,0.1-1.1-0.3c-0.1-0.1-0.4-0.1-0.6,0c-0.9,0.5-1.9,0.1-2.9,0.2c-0.5,0.1-0.8-0.5-1.2-0.2c-0.3-0.3-0.1-0.5-0.2-0.7
    c-1.2-0.4-2.4-0.5-3.6-0.3c-1.7,0.3-3.5,0.1-5.2,0.2c-0.2,0.1,0,0.4-0.2,0.7c-1.7,0-3.4,0-5.1,0c-1.3,0-2.6-0.1-3.9,0.3
    c-0.1,0.1,0,0.3,0,0.5c-1.5,0.5-3,0.5-4.5,0.3c-2.1-0.3-4.3,0-6.5-0.2c-0.2-0.1,0-0.4-0.1-0.6c0,0-0.1-0.1-0.1-0.1
    c-1.2,0-2.4,0.2-3.6-0.1c-1.2-0.2-2.3-0.1-3.5-0.2c-1.2,0-2.4,0-3.6,0c-0.8,0-1.6-0.1-2.4,0.2c-0.9,0.3-1.8-0.3-2.7-0.2
    c-0.2-0.2,0-0.4-0.1-0.6c-0.6,0-1.2,0-1.8,0c0,0.2,0,0.4-0.1,0.6c-0.9,0-1.9,0-2.8,0c0-0.2,0-0.4-0.1-0.6c-0.1,0-0.2-0.1-0.2-0.1
    c-0.9,0-1.8,0.2-2.6-0.1c-0.7-0.2-1.4-0.1-2-0.2c-0.2,0.3-0.1,0.6-0.1,0.9c-1.1,0.5-2.4,0.4-3.6,0.4c-0.2,0-0.4,0.1-0.5-0.1
    c-0.2-0.2-0.5-0.2-0.7-0.1c-1.1,0.5-2.2,0.1-3.3,0.3c-0.2,0.1,0,0.4-0.1,0.6c-1.8,0-3.7,0-5.7,0c0.1-0.9-0.3-1.8-0.3-2.8
    c-1,0-1.9,0-2.8,0c-0.2-0.3-0.1-0.6-0.1-0.9c-0.3-0.3-0.6,0-0.9-0.2c0-0.2,0-0.5,0-0.8c-0.3-0.2-0.6,0-0.9-0.2c0-0.2,0-0.5,0-0.8
    c-0.1,0-0.2-0.1-0.2-0.1c-0.9,0-1.8,0.2-2.6-0.1c-0.6-0.2-1.3-0.3-1.8-0.1c-0.7,0.2-1.5,0.2-2.2,0.2c-0.2,0.3-0.1,0.6-0.1,0.9
    c-0.7,0.2-1.4,0-2.1,0.1c-0.1,0.3,0,0.5-0.1,0.9c-1,0-2,0-3.1,0c0-0.3,0-0.5,0-0.9c-0.5,0-1,0-1.5,0c-0.3-0.2-0.2-0.5-0.2-0.7
    c0-0.2-0.2-0.3-0.3-0.5c-0.2,0-0.5,0-0.8,0c-0.2-0.2,0-0.5-0.2-0.7c-1.2,0.2-2.4-0.5-3.6-0.2c-0.2-0.2-0.1-0.5-0.2-0.7
    c-1,0-2,0-3.1,0c0,0.2,0,0.4-0.1,0.7c-1.3-0.2-2.6,0.5-3.9,0.2c-0.3,0.2-0.1,0.5-0.2,0.7c-0.6,0-1.2,0-1.8,0
    c-0.2-0.2,0-0.5-0.2-0.6c-1.6-0.1-3.2-0.5-4.9-0.2c0-0.3,0-0.5,0-0.7c-0.9,0-1.9,0-2.8,0c0,0.2,0,0.4-0.1,0.6c-2.3,0-4.7,0-7.1,0
    c-0.2-0.1,0-0.4-0.1-0.6c-2.6,0-5.2,0-7.8,0c-0.2,0.1,0,0.4-0.1,0.6c-2.3,0.2-4.6-0.3-6.9,0.4c-0.1,0.1,0,0.4-0.1,0.6c0,0,0,0,0,0
    c-0.5-0.1-0.9,0.3-1.4,0.3c-2,0-4.1,0.1-6.1-0.1c-1.3-0.1-2.6-0.3-3.9-0.1c-1.5,0.2-3,0.1-4.5,0.2c-0.3,0.6,0.4,1.2,0.1,1.8
    c0.3,0,0.5,0.1,0.7,0.1c0.2,0.3,0,0.6,0.1,0.9c-4,0-8,0-12,0c0-0.3,0-0.5,0-0.9c-0.6,0-1.2,0-1.9,0c0-0.4,0-0.6,0-0.9c-1,0-2,0-3,0
    c-0.2,0.2,0,0.6-0.1,0.9c-3.2,0-6.5,0-9.7,0c-0.2-0.2,0.1-0.6-0.2-0.9c-1.6,0-3.2,0-4.9,0c-0.2,0.2,0,0.5-0.1,0.9
    c-0.4,0.1-0.9,0-1.4,0.1c-0.5,0-0.9,0-1.4,0c-0.2,0.3-0.1,0.6-0.1,0.9c-1.3,0-2.7,0-4,0c0-0.3,0-0.5,0-0.9c-0.7,0-1.4,0-2.1,0
    c0-0.4,0-0.6,0-0.9c-1.6,0-3.1,0-4.6,0c-0.3-0.3,0-0.7-0.2-1c-2.2,0-4.5,0-6.8,0c-0.2,0.2,0,0.6-0.2,0.9c-0.6,0-1.3,0-1.9,0
    c-0.2,0.3-0.1,0.6-0.1,0.9c-0.6,0.2-1.2,0-1.9,0.1c0,0.3,0,0.5,0,0.9c-1,0-1.9,0-2.9,0c0,0.4,0,0.6-0.1,1c-1.3-0.2-2.6,0.4-3.9,0.2
    c-0.3,0.2,0,0.5-0.2,0.7c-2.6,0.6-5.2,0.2-7.8,0c-0.2-0.2,0-0.4-0.1-0.6c-3-0.3-6,0.3-9.1-0.3c0-0.3,0-0.6,0-0.9
    c-1.3,0-2.5,0-3.7,0c-0.3-0.3,0-0.7-0.2-1c-0.3,0-0.7,0-1,0c-0.2,0.2,0,0.6-0.2,0.9c-1.2,0-2.4,0-3.7,0c-0.2-0.3,0-0.5-0.2-0.9
    c-0.3-0.2-0.7,0-1.1-0.1c0-0.3,0-0.5,0-0.8c-0.3-0.2-0.6-0.1-1-0.1c0,0.3,0,0.5,0,0.9c-0.9,0-1.8,0-2.7,0c-0.3,0.3-0.1,0.7-0.2,1
    c-0.6,0-1.2,0-1.7,0c-0.3,0.3,0,0.7-0.2,1c-0.3,0-0.7,0-1.1,0c0-0.6,0-1.2,0-1.7c-0.3-0.3-0.7-0.1-1-0.2c0-0.6,0-1.1,0-1.7
    c-1.7-0.6-3.4-0.3-5-0.4c0-0.2,0-0.4-0.1-0.6c-0.3-0.2-0.5,0-0.8-0.1c-0.3-0.2,0-0.6-0.2-0.9c-0.3-0.2-0.6,0-0.8-0.1
    c-0.3,0.3,0,0.6-0.2,1c-1.3,0-2.6,0-3.9,0c-0.2,0.2-0.1,0.4-0.1,0.6c-1.3,0.6-2.7,0.3-4.1,0.4c0,0.3,0,0.6,0,0.8
    c-0.2,0.2-0.4,0.1-0.6,0.1c-0.1,0.6-0.3,1.2-0.4,1.9c-0.9,0-1.8,0-2.7,0c-0.3,0.3,0,0.7-0.2,1c-0.6,0-1.3,0-2,0
    c-0.2-0.2,0-0.5-0.2-0.9c0.1,0.1,0,0,0,0c0,0-0.1,0-0.1,0c-2.6,0-5.1,0-7.6,0c-0.2,0.3-0.1,0.6-0.1,0.8c-1.2,0.4-2.5,0.3-3.7,0.4
    c-0.5,0-1,0-1.4,0c-0.8,0-1.6,0.1-2.4,0c-0.7-0.2-1.5-0.2-2.2-0.2c-0.3-0.3,0-0.6-0.2-0.9c-1,0-2,0-3,0c0,0.9,0,1.9,0,2.8
    c-0.4,0-0.6,0-0.9,0c-0.2,0.4,0.1,0.8-0.2,1.2c-1,0-2,0-3,0c0,0.3,0,0.6,0,0.9c-1,0-1.9,0-2.9,0c0-0.3,0-0.5,0-0.9
    c-2.3,0-4.7,0-7.1,0c-0.2,0.2,0,0.6-0.1,0.8c-0.2,0.2-0.4,0-0.5,0.1c-0.3-0.3,0-0.6-0.2-0.9c-2,0-4,0-6.1,0c-0.2,0.2,0,0.6-0.2,0.9
    c-3.9,0-7.9,0-11.8,0c-0.2,0.3,0,0.6-0.2,0.9c-0.4,0-0.8,0-1.3,0c-0.5,0-0.9,0-1.5,0c0,0.4,0,0.7,0,1.2c-1.3,0.1-2.6,0.1-3.9-0.3
    c0-0.2,0-0.5,0-0.8c-4.1,0-8.1,0-12.1,0c-0.3-0.3,0-0.7-0.2-1c-1.3,0-2.6,0-3.9,0c-0.3-0.3,0-0.7-0.2-1c-1.5,0-3.1,0-4.6,0
    c-0.2-0.3-0.1-0.6-0.1-0.9c-0.4,0-0.8,0-1.3,0c-1,0-1.9,0-2.9,0c-0.3,0-0.7,0.1-1-0.2c-0.1-0.1-0.4-0.1-0.6,0
    c-0.7,0.4-1.5,0.2-2.3,0.2c-1,0-1.9,0-2.9,0c-0.3,0.2,0,0.6-0.2,0.9c-1.2,0-2.4,0-3.6,0c-0.3,0.3,0,0.7-0.2,1c-0.3,0-0.7,0-1,0
    c-0.2,0.3-0.1,0.6-0.1,0.9c-0.2,0.3-0.6,0-0.9,0.2c-0.2,0.2,0,0.5-0.1,0.9c-2.2,0-4.5,0-6.9,0c0-0.3,0-0.5,0-0.8c-1.7,0-3.4,0-5,0
    c0,0.3,0,0.5,0,0.8c-0.1,0-0.1,0.1-0.2,0.1c-0.7,0-1.5-0.1-2.2,0c-1.8,0.4-3.6,0.1-5.4,0.2c-0.1-0.1-0.2-0.2-0.3-0.3
    c-0.2-0.2,0.1-0.6-0.2-0.9c-0.9,0-1.8,0-2.7,0c-0.2-0.3-0.1-0.6-0.1-0.9c-0.6,0-1.2,0-1.9,0c0-0.4,0-0.6,0-0.9c-0.6,0-1.2,0-1.9,0
    c0,0.3,0,0.6,0,0.9c-0.4,0-0.7,0-1,0c-0.3,0.3-0.1,0.7-0.2,1c-0.9,0-1.8,0-2.8,0c-0.2-0.2,0.1-0.6-0.2-0.9c-2.6,0-5.1,0-7.7,0
    c-0.2-0.3,0-0.6-0.2-0.9c-1.6-0.1-3.4,0-5.1-0.1c-0.2-0.3,0-0.6-0.1-0.8c0,0-0.1-0.1-0.1-0.1c0,0-0.1,0-0.1,0
    c-1.5,0.2-3-0.3-4.6-0.2c0-0.3-0.1-0.4-0.1-0.6c-0.1,0-0.1-0.1-0.2-0.1c-0.1,0-0.2,0-0.4,0c-0.6,0-1.2,0-1.8,0
    c-0.5,0-1-0.4-1.5-0.2c-0.3-0.2,0-0.5-0.3-0.7c-0.8,0-1.6,0-2.4,0c-0.6,0-1.2,0.2-1.7-0.2c0,0-0.2,0-0.2,0
    c-1.1,0.5-2.3,0.1-3.4,0.3c0,0.2,0,0.4-0.1,0.7c-0.6-0.1-1.1,0.3-1.8,0.2c-0.2,0.2,0,0.5-0.2,0.7c-0.7-0.2-1.3,0.2-2,0.3
    c-0.7,0-1.3-0.4-1.9-0.3c-0.2-0.2-0.1-0.4-0.1-0.6c-0.1,0-0.1-0.1-0.2-0.1C463.3,8.6,456.7,9,450,8.8c-0.2-0.1,0-0.4-0.2-0.7
    c-1.2,0-2.4-0.1-3.6,0c-1.4,0.1-2.7-0.4-4.1-0.3c-0.3-0.3,0-0.6-0.2-1c-0.2,0-0.5,0-0.8,0c-0.2-0.3-0.1-0.6-0.1-0.8
    c0,0-0.1-0.1-0.1-0.1c-1,0-2,0-3,0c0,0.3,0,0.5,0,0.9c-1,0-1.9,0-2.9,0c0,0.4,0,0.6,0,0.9c-0.1,0-0.1,0.1-0.2,0.1
    c-1.6,0-3.1,0-4.7,0c-0.7,0-1.4,0.1-2.2,0c-0.7-0.1-1.2,0.6-1.9,0.2c-0.3,0.2-0.1,0.4-0.3,0.7c-0.1,0.2-0.7-0.2-0.8,0.3
    c-0.2,0.3-0.1,0.6-0.1,0.9c-0.3,0.3-0.6,0-0.9,0.2c0,0.2,0,0.5,0,0.8c-1.7,0-3.4,0-5,0c0-0.3,0-0.5,0-0.8c-0.3-0.3-0.7,0.1-1-0.3
    c-0.1-0.2-0.4-0.1-0.6-0.1c-1,0.4-2.1,0.1-3.1,0.3c-0.2,0.3,0,0.6-0.2,0.9c-1.3,0-2.6,0-3.9,0c-0.2-0.3,0-0.6-0.1-0.9
    c-0.6,0.1-1.2-0.4-1.9-0.3c0-0.3-0.1-0.5-0.1-0.7c-1,0-2,0-3,0c-0.2,0.1,0,0.4-0.2,0.7c-0.7-0.2-1.2,0.4-1.9,0.2
    c-0.3,0.3,0,0.7-0.2,1c-0.6,0-1.1,0-1.7,0c-0.2,0.3-0.1,0.6-0.1,0.9c-2.6,0-5.2,0-7.9,0c0-0.3,0-0.5,0-0.9c-0.6,0-1.2,0-1.9,0
    c0,0.3,0,0.6,0,0.9c-0.7,0-1.4,0-2,0c-0.3,0.3,0,0.7-0.2,1c-2.2,0-4.5,0-6.8,0c-0.2-0.2,0-0.6-0.2-0.9c-3.5,0-7.1,0-10.6,0
    c-0.2-0.3-0.1-0.6-0.1-0.9c-1.6-0.1-3.3,0-5,0c0-0.3,0-0.6,0-0.9c-2.3,0-4.6,0-7,0c0,0.3,0,0.5,0,0.9c-3,0-6,0-9,0
    c-0.2-0.2,0-0.6-0.1-0.9c-0.6,0-1.2,0-1.8,0c-0.2,0.2,0,0.6-0.1,0.9c-0.2,0-0.5,0-0.8,0c-0.2,0.3,0,0.6-0.2,0.9c-0.3,0-0.7,0-1,0
    c-0.2,0.3-0.1,0.6-0.1,0.9c-0.3,0.3-0.6,0-0.9,0.2c0-0.4,0-0.6,0-1c-2.3,0-4.6,0-7,0c0-0.4,0-0.6-0.1-0.9c-0.3,0-0.7,0-1.1,0
    c-0.2,0.2,0,0.6-0.1,0.9c-1.5,0-3.1,0-4.7,0c-0.2-0.2,0-0.6-0.1-0.9c-0.9,0-1.8,0-2.7,0c-0.2,0.2,0,0.6-0.2,0.9c-0.6,0-1.3,0-2,0
    c-0.2-0.3,0-0.5-0.1-0.9c-0.4,0-0.9,0-1.4,0c-0.5,0-0.9,0-1.5,0c0,0.3,0,0.6,0,0.9c-0.7,0-1.4,0-2.2,0c0,0.4,0,0.6-0.1,0.9
    c-0.6,0-1.2,0-1.8,0c-0.2-0.6,0-1.2-0.1-1.8c-1,0-2,0-3,0c-0.2,0.2,0.1,0.6-0.2,0.9c-0.9,0-1.8,0-2.7,0c-0.3,0.3,0,0.7-0.2,1
    c-0.6,0-1.1,0-1.7,0c-0.2,0.3-0.1,0.6-0.1,0.9c-0.7,0-1.4,0.4-2.1,0.3c0,0.4,0,0.6,0,0.9c-0.3,0.2-0.6,0-1,0.2c0,0,0.2,0.3,0.1,0.5
    c-1.7,0.6-3.3,0.4-5,0c-0.1-0.1,0-0.3,0-0.5c-0.1,0-0.1-0.1-0.2-0.1c-1.9,0.1-3.8-0.3-5.8-0.3c0,0,0-0.4-0.1-0.6
    c-5.9,0-11.9,0-17.9,0c-0.2,0.1,0,0.4-0.1,0.6c-1.2,0-2.4,0-3.7,0c-0.2-0.1,0-0.4-0.1-0.7c-2.3,0-4.7,0-7,0c-0.2,0.2,0,0.4-0.1,0.6
    c-1.8,0.4-1.8,0.4-4.8,0.1c0-0.2,0-0.4-0.1-0.6c-1.6,0-3.3,0-4.9,0c-0.2,0.1,0,0.4-0.1,0.6c-1.9,0-3.9,0-5.9,0
    c-0.2-0.2,0-0.4-0.1-0.6c-1-0.1-2-0.5-3-0.3c0-0.3,0-0.6,0-0.9c-1.4,0-2.7,0-4.1,0c0,0.3,0,0.5,0,0.8c-0.1,0-0.1,0.1-0.2,0.1
    c-1-0.2-1.9,0.3-2.9,0.3c-0.8,0-1.7,0.1-2.7-0.4c-0.1-0.1,0.2-0.5-0.1-0.8c-3,0-5.9,0-8.9,0c-0.2-0.3,0-0.6-0.2-0.9c0,0,0,0,0,0
    c0,0-0.1,0-0.1,0c-2.2,0-4.5,0-6.7,0c0-0.3,0-0.6,0-0.8c-0.3-0.3-0.7,0-0.9-0.2c-0.1-0.3-0.1-0.5,0-0.8c0.3-0.2,0.6,0,0.9-0.2
    c0-0.3,0-0.7,0-1.1c-2.4,0-4.7,0-7,0c-0.3-0.2-0.1-0.5-0.2-0.7c-0.3-0.2-0.7,0.1-1-0.2c0-0.1-0.3-0.1-0.3,0c-0.9,0.6-1.7-0.1-2.6,0
    c-0.9,0.1-1.8,0-2.8,0c0.2-0.7-0.4-1.2-0.2-1.9c-1.6,0-3.2,0-4.7,0c-0.3-0.3-0.1-0.7-0.2-1c-4,0-7.9,0-11.9,0
    c-0.1,0.3-0.1,0.6,0,0.9c0.6,0,1.2,0,1.8,0c0.2,0.3,0.1,0.6,0.1,0.8c0.3,0.3,0.6,0,0.9,0.2c0,0.4,0,0.7,0,1.1
    c-1.5,0.4-3.1-0.3-4.6-0.2c-0.3-0.3,0-0.6-0.2-0.9c-1.4,0-2.8,0-4.1,0c-0.3-0.3-0.1-0.7-0.2-1c-0.9,0-1.8,0-2.7,0
    c-0.2-0.3-0.1-0.6-0.1-0.8c-1-0.2-8.2-0.3-11.9-0.1c-0.2,0.3,0,0.5-0.1,0.8c0,0-0.1,0.1-0.1,0.1c-0.6,0-1.2,0-1.8,0
    c0-0.3,0-0.6,0-0.9c-1.3,0-2.7,0-4,0c0-0.4,0-0.6,0-0.9c-3.2,0-6.5,0-9.7,0c-0.2,0.2,0,0.6-0.1,0.9c-1,0-2,0-2.9,0
    c-0.3,0.3-0.1,0.7-0.2,1c-1.7,0-3.3,0-4.9,0c-0.2-0.2,0-0.5-0.1-0.8c0,0,0-0.1-0.1-0.1c0,0-0.1,0-0.1,0c-2.2,0-4.5,0-6.7,0
    c-0.2-0.3-0.1-0.6-0.1-0.8c-1.1-0.4-2.3-0.5-3.4-0.3c-1.3,0.3-2.5,0.1-3.7,0.2c-0.6,0.1-1.2-0.4-1.8-0.3c-0.2-0.2,0-0.5-0.2-0.7
    c-0.6,0-1.2,0-1.7,0c-0.2,0.2,0,0.4-0.1,0.6c0,0-0.1,0.1-0.1,0.1c-1.9,0-3.9,0-5.8,0c-0.2-0.2,0-0.4-0.1-0.6c-0.6,0-1.2,0-1.9,0
    c0,0.2,0,0.4-0.1,0.6c-2.7,0-5.4,0-8.1,0c0-0.2,0-0.4-0.1-0.7c-1.5,0-2.9-0.1-4.4,0c-1.8,0.1-3.5-0.5-5.2-0.2
    c-0.3-0.2,0-0.5-0.2-0.7c-0.9,0-1.8,0-2.7,0c-0.1,0.3,0,0.7-0.5,0.9c-0.7,0-1.5-0.5-2.3-0.2c-0.9,0.3-1.9,0.2-2.8,0.2
    c-0.3,0-0.5,0.1-0.8-0.2c-0.1-0.2-0.4-0.1-0.6-0.1c-0.7,0.4-1.5,0.2-2.2,0.2c-0.2,0.2,0,0.4-0.2,0.7c0,0,0,0,0,0c0,0-0.1,0-0.1,0
    c-0.9,0-1.8,0-2.7,0.4c0,0.2,0,0.4,0,0.8c-0.4,0-0.7,0-1,0c-0.3,0.3-0.1,0.7-0.2,1c-3,0-6,0-9,0c-0.2-0.2,0.1-0.6-0.2-0.9
    c-0.6,0-1.1,0-1.7,0c-0.3-0.3,0-0.7-0.2-1c-0.9,0.1-1.8-0.1-2.7-0.3c0-0.2,0-0.4,0-0.6c-2,0-3.9,0-5.9,0c0,0.2,0,0.4-0.1,0.7
    c-0.6-0.1-1.1,0.3-1.8,0.2c-0.3,0.3,0,0.6-0.2,0.9c-0.6,0-1.3,0-1.9,0c-0.3,0.3,0,0.6-0.2,1c-0.1,0.2-0.5-0.1-0.8,0
    c-0.1,0.2,0,0.5-0.1,0.9c-0.7,0-1.4,0-2.1,0c0-0.3,0-0.5,0-0.9c-0.6,0-1.2,0-1.9,0c0-0.4,0-0.6,0-0.9c-0.6,0-1.2,0-1.7,0
    c-0.3-0.3,0-0.7-0.2-0.9c-0.9-0.2-1.8-0.4-2.7-0.3c-0.2-0.2-0.1-0.4-0.2-0.7c-0.3-0.1-0.7,0-1.1-0.1c-0.2,0.2-0.1,0.4-0.1,0.6
    C52.4,4,51.7,3.6,51.1,4c-0.6,0.4-1.2-0.4-1.7-0.1c-0.3-0.2-0.1-0.5-0.2-0.8c-0.8,0.1-1.6-0.4-2.5-0.2C44.4,3.4,42.2,3,40,3.1
    c-0.9,0-1.7-0.5-2.5-0.2c-0.7,0.3-1.4,0.1-2.1,0.2c-0.3,0.2,0.1,0.7-0.6,0.9c-0.4,0-1,0-1.5,0c-0.3,0.3,0,0.7-0.2,1
    c-2.2,0-4.5,0-6.8,0c-0.2,0.3-0.1,0.6-0.1,0.9c-0.5,0.1-1,0-1.5,0.1c-0.5,0-1,0-1.6,0c0,0.3,0,0.6,0,0.8c-0.3,0.2-0.6,0.1-1,0.1
    c0-0.3,0-0.5,0-0.8c-0.3-0.2-0.6,0-0.9-0.2c0-0.2,0-0.5,0-0.8c-0.7,0-1.4,0-2.1,0c-0.2,0.2,0,0.6-0.1,0.9c-1.5,0-3.1,0-4.6,0
    c-0.2-0.2,0-0.6-0.2-0.9c-0.9,0-1.8,0-2.7,0c-0.2,0.3,0,0.5-0.1,0.8C10.3,6,3.9,6.1,1.2,5.9c0-0.3,0-0.5,0-0.8C0.8,4.9,0.4,5.2,0,5
    c0-1.6,0-3.2,0-5c631.4,0,1262.7,0,1894.1,0C1894.1,4.3,1894.1,8.6,1894.1,13z"/>
</svg>
